<svg width="16" height="16" viewBox="0 0 16 16" fill="none" xmlns="http://www.w3.org/2000/svg">
<circle cx="8" cy="8" r="6.65" stroke="#545454" stroke-width="0.7"/>
<circle cx="5.6" cy="6.6" r="0.6" fill="#545454"/>
<circle cx="10.4008" cy="6.6" r="0.6" fill="#545454"/>
<path fill-rule="evenodd" clip-rule="evenodd" d="M5.16576 9.40002C4.94086 9.40002 4.77087 9.60586 4.8397 9.81997C5.28451 11.2037 6.53081 12.2 7.99872 12.2C9.46664 12.2 10.7129 11.2037 11.1577 9.81997C11.2266 9.60586 11.0566 9.40002 10.8317 9.40002C10.6663 9.40002 10.5247 9.51433 10.4705 9.67058C10.0954 10.7523 9.11188 11.5 7.99872 11.5C6.88557 11.5 5.90209 10.7523 5.52694 9.67058C5.47275 9.51433 5.33113 9.40002 5.16576 9.40002Z" fill="#545454"/>
</svg>
