<svg width="20" height="20" viewBox="0 0 20 20" fill="none" xmlns="http://www.w3.org/2000/svg">
<circle cx="9.99998" cy="9.99998" r="8.31248" stroke="#007399" stroke-width="0.874998"/>
<circle cx="7" cy="8.25" r="0.749998" fill="#007399"/>
<circle cx="13" cy="8.25" r="0.749998" fill="#007399"/>
<path fill-rule="evenodd" clip-rule="evenodd" d="M6.45708 11.7501C6.17595 11.7501 5.96346 12.0074 6.0495 12.275C6.60552 14.0047 8.16339 15.25 9.99827 15.25C11.8331 15.25 13.391 14.0047 13.947 12.275C14.0331 12.0074 13.8206 11.7501 13.5395 11.7501C13.3327 11.7501 13.1557 11.893 13.088 12.0883C12.619 13.4405 11.3897 14.375 9.99827 14.375C8.60683 14.375 7.37749 13.4405 6.90855 12.0883C6.84081 11.893 6.66379 11.7501 6.45708 11.7501Z" fill="#007399"/>
</svg>
