<svg width="12" height="12" viewBox="0 0 12 12" fill="none" xmlns="http://www.w3.org/2000/svg">
<path fill-rule="evenodd" clip-rule="evenodd" d="M12 6C12 9.31371 9.31371 12 6 12C2.68629 12 0 9.31371 0 6C0 2.68629 2.68629 0 6 0C9.31371 0 12 2.68629 12 6ZM5.92438 3C5.6389 3 5.41136 3.23863 5.42494 3.52378L5.6 7.2H6.4L6.57506 3.52378C6.58864 3.23863 6.3611 3 6.07562 3H5.92438ZM6 8.95C6.33137 8.95 6.6 8.68137 6.6 8.35C6.6 8.01863 6.33137 7.75 6 7.75C5.66863 7.75 5.4 8.01863 5.4 8.35C5.4 8.68137 5.66863 8.95 6 8.95Z" fill="#FA5151"/>
</svg>
