<svg width="31" height="30" viewBox="0 0 31 30" fill="none" xmlns="http://www.w3.org/2000/svg">
<circle cx="15.5" cy="15" r="14.5" fill="white" stroke="#957D95"/>
<path fill-rule="evenodd" clip-rule="evenodd" d="M9.5 8.75C9.5 8.33579 9.83579 8 10.25 8L20.75 8C21.1642 8 21.5 8.33579 21.5 8.75C21.5 9.16421 21.1642 9.5 20.75 9.5L10.25 9.5C9.83579 9.5 9.5 9.16421 9.5 8.75ZM14.9697 10.2197C15.2626 9.92678 15.7374 9.92678 16.0303 10.2197L19.2803 13.4697C19.5732 13.7626 19.5732 14.2374 19.2803 14.5303C18.9874 14.8232 18.5126 14.8232 18.2197 14.5303L16.25 12.5607L16.25 21.25C16.25 21.6642 15.9142 22 15.5 22C15.0858 22 14.75 21.6642 14.75 21.25L14.75 12.5607L12.7803 14.5303C12.4874 14.8232 12.0126 14.8232 11.7197 14.5303C11.4268 14.2374 11.4268 13.7626 11.7197 13.4697L14.9697 10.2197Z" fill="#957D95"/>
</svg>
