<svg width="12" height="13" viewBox="0 0 12 13" fill="none" xmlns="http://www.w3.org/2000/svg">
<path d="M7.46667 12.5C7.02484 12.5 6.66667 12.1418 6.66667 11.7V6.63333C6.66667 6.19151 7.02484 5.83333 7.46667 5.83333H11.2C11.6418 5.83333 12 6.19151 12 6.63333V11.7C12 12.1418 11.6418 12.5 11.2 12.5H7.46667ZM0.800001 7.16667C0.358173 7.16667 0 6.80849 0 6.36667V1.3C0 0.858172 0.358172 0.5 0.8 0.5H4.53333C4.97516 0.5 5.33333 0.858172 5.33333 1.3V6.36667C5.33333 6.80849 4.97516 7.16667 4.53333 7.16667H0.800001ZM3.5 5.83333C3.77614 5.83333 4 5.60948 4 5.33333V2.33333C4 2.05719 3.77614 1.83333 3.5 1.83333H1.83333C1.55719 1.83333 1.33333 2.05719 1.33333 2.33333V5.33333C1.33333 5.60948 1.55719 5.83333 1.83333 5.83333H3.5ZM0.800001 12.5C0.358173 12.5 0 12.1418 0 11.7V9.3C0 8.85817 0.358172 8.5 0.8 8.5H4.83333C5.10948 8.5 5.33333 8.72386 5.33333 9V11.7C5.33333 12.1418 4.97516 12.5 4.53333 12.5H0.800001ZM1.33333 10.6667C1.33333 10.9428 1.55719 11.1667 1.83333 11.1667H3.5C3.77614 11.1667 4 10.9428 4 10.6667V10.3333C4 10.0572 3.77614 9.83333 3.5 9.83333H1.83333C1.55719 9.83333 1.33333 10.0572 1.33333 10.3333V10.6667ZM8 10.6667C8 10.9428 8.22386 11.1667 8.5 11.1667H10.1667C10.4428 11.1667 10.6667 10.9428 10.6667 10.6667V7.66667C10.6667 7.39052 10.4428 7.16667 10.1667 7.16667H8.5C8.22386 7.16667 8 7.39052 8 7.66667V10.6667ZM6.66667 1.3C6.66667 0.858172 7.02484 0.5 7.46667 0.5H11.2C11.6418 0.5 12 0.858172 12 1.3V3.7C12 4.14183 11.6418 4.5 11.2 4.5H7.46667C7.02484 4.5 6.66667 4.14183 6.66667 3.7V1.3ZM8.5 1.83333C8.22386 1.83333 8 2.05719 8 2.33333V2.66667C8 2.94281 8.22386 3.16667 8.5 3.16667H10.1667C10.4428 3.16667 10.6667 2.94281 10.6667 2.66667V2.33333C10.6667 2.05719 10.4428 1.83333 10.1667 1.83333H8.5Z" fill="#545454"/>
</svg>
