<svg width="14" height="13" viewBox="0 0 14 13" fill="none" xmlns="http://www.w3.org/2000/svg">
<path d="M0.333985 4.49601C0.333634 3.97081 0.436886 3.4507 0.63783 2.96546C0.838773 2.48023 1.13346 2.03939 1.50502 1.66821C1.87657 1.29702 2.3177 1.00278 2.80314 0.802319C3.28858 0.601861 3.80879 0.499129 4.33399 0.500006H9.66732C11.876 0.500006 13.6673 2.29667 13.6673 4.49601V12.5H4.33399C2.12532 12.5 0.333985 10.7033 0.333985 8.504V4.49601ZM12.334 11.1667V4.49601C12.3322 3.78967 12.0506 3.11283 11.5507 2.61375C11.0509 2.11467 10.3737 1.83404 9.66732 1.83334H4.33399C3.98388 1.83246 3.63705 1.9007 3.31338 2.03416C2.98971 2.16761 2.69557 2.36364 2.44783 2.61101C2.20008 2.85839 2.00361 3.15224 1.86967 3.47571C1.73573 3.79918 1.66697 4.1459 1.66732 4.49601V8.504C1.66908 9.21034 1.95073 9.88718 2.45056 10.3863C2.95039 10.8853 3.62765 11.166 4.33399 11.1667H12.334ZM8.33399 5.83334H9.66732V7.16667H8.33399V5.83334ZM4.33399 5.83334H5.66732V7.16667H4.33399V5.83334Z" fill="#545454"/>
</svg>
