<svg width="24" height="24" viewBox="0 0 24 24" fill="none" xmlns="http://www.w3.org/2000/svg">
<circle cx="12" cy="12" r="12" fill="black" fill-opacity="0.04"/>
<path d="M15.334 8.00016H18.6673V9.3335H17.334V18.0002C17.334 18.177 17.2637 18.3465 17.1387 18.4716C17.0137 18.5966 16.8441 18.6668 16.6673 18.6668H7.33398C7.15717 18.6668 6.9876 18.5966 6.86258 18.4716C6.73756 18.3465 6.66732 18.177 6.66732 18.0002V9.3335H5.33398V8.00016H8.66732V6.00016C8.66732 5.82335 8.73756 5.65378 8.86258 5.52876C8.9876 5.40373 9.15717 5.3335 9.33398 5.3335H14.6673C14.8441 5.3335 15.0137 5.40373 15.1387 5.52876C15.2637 5.65378 15.334 5.82335 15.334 6.00016V8.00016ZM16.0007 9.3335H8.00065V17.3335H16.0007V9.3335ZM10.0007 11.3335H11.334V15.3335H10.0007V11.3335ZM12.6673 11.3335H14.0007V15.3335H12.6673V11.3335ZM10.0007 6.66683V8.00016H14.0007V6.66683H10.0007Z" fill="black" fill-opacity="0.3"/>
</svg>
