<svg width="30" height="30" viewBox="0 0 30 30" fill="none" xmlns="http://www.w3.org/2000/svg">
<circle cx="15" cy="15" r="15" fill="black" fill-opacity="0.04"/>
<path d="M9.16667 20.3333C9.16667 20.6095 9.39052 20.8333 9.66667 20.8333H10.1379C10.2705 20.8333 10.3977 20.7807 10.4914 20.6869L17.7531 13.4252C17.9484 13.23 17.9484 12.9134 17.7531 12.7181L17.2819 12.2469C17.0866 12.0516 16.77 12.0516 16.5748 12.2469L9.31311 19.5086C9.21934 19.6023 9.16667 19.7295 9.16667 19.8621V20.3333ZM22.5 22C22.5 22.2762 22.2761 22.5 22 22.5H8C7.72386 22.5 7.5 22.2762 7.5 22V19.1713C7.5 19.0387 7.55268 18.9115 7.64645 18.8177L18.6958 7.76834C18.8521 7.61212 19.064 7.52435 19.285 7.52435C19.506 7.52435 19.7179 7.61212 19.8742 7.76834L22.2317 10.1258C22.3879 10.2821 22.4757 10.494 22.4757 10.715C22.4757 10.936 22.3879 11.1479 22.2317 11.3042L13.2146 20.3212C13.0256 20.5102 13.1595 20.8333 13.4268 20.8333H22C22.2761 20.8333 22.5 21.0572 22.5 21.3333V22ZM18.4602 10.3615C18.265 10.5567 18.265 10.8733 18.4602 11.0686L18.9314 11.5398C19.1267 11.7351 19.4433 11.7351 19.6386 11.5398L20.1098 11.0686C20.305 10.8733 20.305 10.5567 20.1098 10.3615L19.6386 9.89023C19.4433 9.69497 19.1267 9.69497 18.9314 9.89023L18.4602 10.3615Z" fill="black" fill-opacity="0.1"/>
</svg>
