<svg width="24" height="24" viewBox="0 0 24 24" fill="none" xmlns="http://www.w3.org/2000/svg">
<circle cx="12" cy="12" r="12" fill="black" fill-opacity="0.04"/>
<path d="M7.33333 16.1667C7.33333 16.4429 7.55719 16.6667 7.83333 16.6667H8.06889C8.2015 16.6667 8.32868 16.614 8.42245 16.5203L14.1318 10.8109C14.327 10.6157 14.327 10.2991 14.1318 10.1038L13.8962 9.86828C13.701 9.67301 13.3844 9.67301 13.1891 9.86828L7.47978 15.5776C7.38601 15.6714 7.33333 15.7986 7.33333 15.9312V16.1667ZM18 17.5001C18 17.7762 17.7761 18.0001 17.5 18.0001H6.5C6.22386 18.0001 6 17.7762 6 17.5001V15.3785C6 15.2459 6.05268 15.1187 6.14645 15.0249L14.9567 6.21472C15.0817 6.08974 15.2512 6.01953 15.428 6.01953C15.6048 6.01953 15.7743 6.08974 15.8993 6.21472L17.7853 8.10072C17.9103 8.22574 17.9805 8.39528 17.9805 8.57206C17.9805 8.74883 17.9103 8.91837 17.7853 9.04339L10.6741 16.1546C10.4851 16.3436 10.619 16.6667 10.8863 16.6667H17.5C17.7761 16.6667 18 16.8906 18 17.1667V17.5001ZM14.8389 8.2185C14.6436 8.41376 14.6436 8.73035 14.8389 8.92561L15.0744 9.16117C15.2697 9.35643 15.5863 9.35643 15.7816 9.16117L16.0171 8.92561C16.2124 8.73035 16.2124 8.41376 16.0171 8.2185L15.7816 7.98294C15.5863 7.78768 15.2697 7.78768 15.0744 7.98294L14.8389 8.2185Z" fill="black" fill-opacity="0.3"/>
</svg>
