<svg width="17" height="17" viewBox="0 0 17 17" fill="none" xmlns="http://www.w3.org/2000/svg">
<path d="M0 1C0 0.447715 0.447715 0 1 0H14.2716C15.2528 0 16.0556 0.765 16.0556 1.7V15.3C16.0556 16.235 15.2528 17 14.2716 17H1C0.447715 17 0 16.5523 0 16V1ZM3.12191 1.7H2.22994C1.96235 1.7 1.78395 1.87 1.78395 2.125V14.96C1.78395 15.13 1.96235 15.3 2.22994 15.3H3.21111C3.38951 15.3 3.5679 15.13 3.5679 14.875V2.125C3.5679 1.87 3.38951 1.7 3.12191 1.7ZM5.79784 15.3H13.8256C14.0932 15.3 14.2716 15.13 14.2716 14.875V2.125C14.2716 1.87 14.0932 1.7 13.8256 1.7H5.79784C5.53025 1.7 5.35185 1.87 5.35185 2.125V14.875C5.35185 15.13 5.53025 15.3 5.79784 15.3Z" fill="#3E92CC"/>
<path d="M7.22607 11.9855C7.88587 10.8612 8.38564 10.1155 9.902 10.1155C11.4184 10.1155 11.8283 10.8612 12.5779 11.9855" stroke="#3E92CC" stroke-width="1.8" stroke-miterlimit="10" stroke-linecap="round"/>
<path d="M9.90161 8.24547C10.7391 8.24547 11.418 7.59852 11.418 6.80047C11.418 6.00242 10.7391 5.35547 9.90161 5.35547C9.06415 5.35547 8.38525 6.00242 8.38525 6.80047C8.38525 7.59852 9.06415 8.24547 9.90161 8.24547Z" stroke="#3E92CC" stroke-width="1.5786" stroke-miterlimit="10"/>
</svg>
