<svg width="20" height="20" viewBox="0 0 20 20" fill="none" xmlns="http://www.w3.org/2000/svg">
<path d="M8.21765 4.85598C8.97291 2.9917 9.35055 2.05957 10 2.05957C10.6494 2.05957 11.027 2.99171 11.7823 4.85599L11.8174 4.9428C12.2441 5.99603 12.4574 6.52264 12.8923 6.84272C13.3271 7.16281 13.8979 7.21342 15.0394 7.31464L15.2457 7.33294C17.114 7.49862 18.0483 7.58145 18.2481 8.1699C18.448 8.75837 17.7543 9.38325 16.3667 10.6331L15.9037 11.0503C15.2014 11.6829 14.8502 11.9993 14.6865 12.4139C14.6559 12.4913 14.6306 12.5705 14.6105 12.6511C14.5029 13.0834 14.6057 13.5423 14.8115 14.4602L14.8754 14.7458C15.2534 16.4326 15.4424 17.2761 15.1125 17.6399C14.9891 17.7759 14.8288 17.8737 14.6508 17.9218C14.1744 18.0505 13.498 17.5048 12.1452 16.4133C11.2569 15.6966 10.8127 15.3382 10.3027 15.2576C10.1022 15.2259 9.89774 15.2259 9.69716 15.2576C9.18722 15.3382 8.74305 15.6966 7.85478 16.4133C6.50195 17.5048 5.82554 18.0505 5.34911 17.9218C5.17108 17.8737 5.01082 17.7759 4.8875 17.6399C4.55752 17.2761 4.74651 16.4326 5.12451 14.7458L5.18852 14.4602C5.3942 13.5423 5.49704 13.0834 5.38945 12.6511C5.36938 12.5705 5.34399 12.4913 5.31346 12.4139C5.14978 11.9993 4.7986 11.6829 4.09623 11.0503L3.63317 10.6331C2.24569 9.38325 1.55195 8.75837 1.75184 8.1699C1.95172 7.58145 2.88587 7.49862 4.75417 7.33294L4.96054 7.31464C6.10209 7.21342 6.67287 7.16281 7.10768 6.84272C7.54248 6.52264 7.75583 5.99603 8.18251 4.9428L8.21765 4.85598Z" stroke="#007399" stroke-width="0.874998"/>
</svg>
