<svg width="16" height="16" viewBox="0 0 16 16" fill="none" xmlns="http://www.w3.org/2000/svg">
<path d="M6.57472 3.88484C7.17893 2.39341 7.48104 1.64771 8.0006 1.64771C8.52009 1.64771 8.8222 2.39342 9.42641 3.88485L9.45452 3.9543C9.79588 4.79688 9.96656 5.21817 10.3144 5.47424C10.6623 5.73031 11.1189 5.7708 12.0321 5.85177L12.1972 5.86641C13.6918 5.99895 14.4392 6.06522 14.5991 6.53598C14.759 7.00676 14.204 7.50667 13.094 8.50655L12.7236 8.84028C12.1617 9.34643 11.8807 9.59953 11.7498 9.93121C11.7253 9.99312 11.7051 10.0565 11.689 10.121C11.6029 10.4668 11.6852 10.8339 11.8498 11.5682L11.9009 11.7968C12.2034 13.1462 12.3545 13.8209 12.0906 14.112C11.9919 14.2208 11.8637 14.299 11.7213 14.3375C11.3401 14.4405 10.799 14.0039 9.71676 13.1307C9.00609 12.5574 8.65075 12.2706 8.24279 12.2062C8.08233 12.1808 7.9188 12.1808 7.75833 12.2062C7.35038 12.2706 6.99504 12.5574 6.28442 13.1307C5.20215 14.0039 4.66103 14.4405 4.27988 14.3375C4.13745 14.299 4.00925 14.2208 3.91059 14.112C3.64661 13.8209 3.7978 13.1462 4.1002 11.7968L4.15141 11.5682C4.31595 10.8339 4.39823 10.4668 4.31215 10.121C4.2961 10.0565 4.27579 9.99312 4.25136 9.93121C4.12042 9.59953 3.83947 9.34643 3.27758 8.84028L2.90712 8.50655C1.79714 7.50667 1.24214 7.00676 1.40205 6.53598C1.56196 6.06522 2.30929 5.99895 3.80392 5.86641L3.96903 5.85177C4.88227 5.7708 5.33889 5.73031 5.68674 5.47424C6.03459 5.21817 6.20526 4.79688 6.54661 3.9543L6.57472 3.88484Z" stroke="#545454" stroke-width="0.7"/>
</svg>
