
<svg width="18" height="17" viewBox="0 0 18 17" fill="none" xmlns="http://www.w3.org/2000/svg">
<path d="M10.0514 17C9.77057 17 9.51403 16.9343 9.26634 16.8017L7.12998 15.5811C6.87152 15.4402 6.65564 15.2294 6.50574 14.9717C6.35584 14.714 6.27765 14.4191 6.27963 14.1191V7.16961C6.27874 7.11859 6.26676 7.06842 6.24457 7.02274C6.22239 6.97706 6.19054 6.93703 6.15137 6.90554L1.20854 2.84827L1.15547 2.78254C0.694357 2.30881 0.587097 1.60615 0.843637 0.98963C0.96647 0.691813 1.17341 0.438461 1.43786 0.262149C1.7023 0.0858374 2.01216 -0.00537336 2.32759 0.000244764H15.6577C16.3024 0.000244764 16.8818 0.385573 17.1516 0.98963C17.417 1.59256 17.302 2.29974 16.8608 2.78254L16.7967 2.84714L11.7919 6.94974C11.7551 6.98244 11.7255 7.0228 11.7051 7.06814C11.6847 7.11347 11.674 7.16275 11.6736 7.21267V15.3272C11.6767 15.5438 11.6381 15.7588 11.5601 15.9601C11.482 16.1614 11.3661 16.3449 11.2188 16.5002C11.0716 16.6556 10.8959 16.7797 10.7019 16.8654C10.5078 16.9512 10.2992 16.9969 10.0879 17H10.0514ZM2.05667 1.85888L6.97738 5.88443C7.3644 6.19835 7.58998 6.67548 7.59109 7.18094V14.1304C7.59109 14.2506 7.64306 14.3707 7.75032 14.4274L9.88778 15.6253C9.9394 15.6526 9.99666 15.6669 10.0548 15.6669C10.1129 15.6669 10.1701 15.6526 10.2217 15.6253C10.2712 15.5942 10.3121 15.5505 10.3404 15.4985C10.3687 15.4465 10.3834 15.3879 10.3832 15.3284V7.22514C10.3832 6.71968 10.5977 6.24482 10.9836 5.92636L15.9154 1.85888C15.9517 1.80899 15.9739 1.74981 15.9795 1.68784C15.9852 1.62586 15.9741 1.56349 15.9474 1.50756C15.9213 1.45134 15.8803 1.40379 15.8291 1.37033C15.7778 1.33686 15.7185 1.31883 15.6577 1.31829H2.32759C2.26653 1.3166 2.20635 1.33359 2.15475 1.3671C2.10315 1.40061 2.06246 1.44911 2.03788 1.50642C2.009 1.56109 1.99556 1.62293 1.99907 1.68499C2.00259 1.74705 2.02292 1.80688 2.05778 1.85775V1.85888H2.05667ZM16.6341 8.76305H12.9707C12.8002 8.76276 12.6367 8.69336 12.5159 8.57C12.3952 8.44665 12.3269 8.27934 12.326 8.10459C12.326 7.7408 12.6168 7.44387 12.9707 7.44387H16.633C16.9891 7.44387 17.2799 7.7408 17.2799 8.10346C17.2816 8.19074 17.266 8.27746 17.2341 8.35841C17.2022 8.43935 17.1547 8.51285 17.0943 8.57447C17.034 8.63609 16.9621 8.68456 16.883 8.71697C16.8039 8.74938 16.7193 8.76506 16.6341 8.76305ZM16.6341 11.2484H12.9707C12.8065 11.2385 12.6523 11.1648 12.5394 11.0421C12.4266 10.9195 12.3638 10.7574 12.3638 10.5888C12.3638 10.4203 12.4266 10.2581 12.5394 10.1355C12.6523 10.0129 12.8065 9.9391 12.9707 9.92923H16.633C16.9891 9.92923 17.2799 10.2273 17.2799 10.5866C17.2819 10.674 17.2665 10.761 17.2348 10.8422C17.203 10.9234 17.1555 10.9972 17.0951 11.059C17.0348 11.1209 16.9628 11.1696 16.8836 11.2021C16.8043 11.2347 16.7195 11.2504 16.6341 11.2484ZM16.6341 13.7224H12.9707C12.8 13.7221 12.6364 13.6526 12.5156 13.529C12.3947 13.4054 12.3266 13.2378 12.326 13.0629C12.326 12.7002 12.6168 12.4033 12.9707 12.4033H16.633C16.9891 12.4033 17.2799 12.6991 17.2799 13.0629C17.2803 13.1497 17.2639 13.2358 17.2316 13.3162C17.1992 13.3965 17.1516 13.4694 17.0915 13.5307C17.0314 13.592 16.9601 13.6404 16.8815 13.6731C16.803 13.7058 16.7189 13.7222 16.6341 13.7213V13.7224Z" fill="#3E92CC"/>
</svg>
