<svg width="20" height="20" viewBox="0 0 20 20" fill="none" xmlns="http://www.w3.org/2000/svg">
<path fill-rule="evenodd" clip-rule="evenodd" d="M12.0802 7.77119C12.0802 8.95663 11.1192 9.91762 9.93374 9.91762C9.70938 9.91762 9.50233 10.0842 9.50233 10.3086V10.394C9.50233 10.412 9.50346 10.4297 9.50565 10.4472C9.51989 10.5607 9.56248 10.6717 9.56248 10.7861V12.7481C9.56248 12.9897 9.75835 13.1856 9.99998 13.1856C10.2416 13.1856 10.4375 12.9897 10.4375 12.7481V11.2797C10.4375 10.9744 10.6612 10.7204 10.9487 10.6179C12.1181 10.2009 12.9552 9.08381 12.9552 7.77119C12.9552 6.1025 11.6024 4.74976 9.93374 4.74976C8.59217 4.74976 7.45481 5.62411 7.06045 6.83406C6.97544 7.09487 7.18831 7.33978 7.46262 7.33978C7.67682 7.33978 7.8567 7.18664 7.93496 6.98726C8.24808 6.18954 9.02495 5.62475 9.93374 5.62475C11.1192 5.62475 12.0802 6.58574 12.0802 7.77119ZM10.625 15.0073C10.625 14.6621 10.3452 14.3823 9.99998 14.3823C9.6548 14.3823 9.37498 14.6621 9.37498 15.0073C9.37498 15.3525 9.6548 15.6323 9.99998 15.6323C10.3452 15.6323 10.625 15.3525 10.625 15.0073Z" fill="#007399"/>
<circle cx="9.99998" cy="9.99998" r="8.31248" stroke="#007399" stroke-width="0.874998"/>
</svg>
