<svg width="16" height="16" viewBox="0 0 16 16" fill="none" xmlns="http://www.w3.org/2000/svg">
<path fill-rule="evenodd" clip-rule="evenodd" d="M9.66373 6.21708C9.66373 7.16543 8.89494 7.93423 7.94658 7.93423C7.76709 7.93423 7.60146 8.0675 7.60146 8.24698V8.31533C7.60146 8.32972 7.60236 8.34393 7.60411 8.35791C7.61552 8.44878 7.64963 8.53767 7.64963 8.62926V10.1987C7.64963 10.392 7.80633 10.5487 7.99963 10.5487C8.19293 10.5487 8.34963 10.392 8.34963 10.1987V9.02384C8.34963 8.77964 8.52859 8.57647 8.75861 8.49445C9.69412 8.16085 10.3637 7.26716 10.3637 6.21708C10.3637 4.88212 9.28153 3.79993 7.94658 3.79993C6.87335 3.79993 5.96349 4.49937 5.64797 5.46729C5.57996 5.67594 5.75026 5.87187 5.96971 5.87187C6.14106 5.87187 6.28497 5.74937 6.34758 5.58987C6.59809 4.95173 7.21957 4.49993 7.94658 4.49993C8.89494 4.49993 9.66373 5.26872 9.66373 6.21708ZM8.49963 12.006C8.49963 11.7298 8.27578 11.506 7.99963 11.506C7.72349 11.506 7.49963 11.7298 7.49963 12.006C7.49963 12.2821 7.72349 12.506 7.99963 12.506C8.27578 12.506 8.49963 12.2821 8.49963 12.006Z" fill="#545454"/>
<circle cx="8" cy="8" r="6.65" stroke="#545454" stroke-width="0.7"/>
</svg>
