<svg width="14" height="15" viewBox="0 0 14 15" fill="none" xmlns="http://www.w3.org/2000/svg">
<path d="M0.711074 4.20946C1.03996 4.07524 1.4 4.31717 1.4 4.6724V11.7339C1.4 12.0891 1.76002 12.331 2.0889 12.1968L4.74102 11.1147C4.87127 11.0615 5.01788 11.0657 5.14489 11.1262L8.94599 12.9363C9.07307 12.9968 9.21977 13.0009 9.35007 12.9477L12.2891 11.7469C12.4771 11.6701 12.6 11.4872 12.6 11.2841V3.407C12.6 3.20378 12.723 3.02077 12.9112 2.94403L13.5121 2.69893C13.5654 2.67718 13.6235 2.66837 13.6812 2.67329C13.7389 2.67821 13.7944 2.69669 13.8428 2.72709C13.8912 2.75749 13.9308 2.79886 13.9583 2.84747C13.9857 2.89608 14.0001 2.95042 14 3.00561V12.164C14 12.3671 13.8771 12.5501 13.689 12.6269L9.3045 14.4165C9.17424 14.4697 9.0276 14.4655 8.90058 14.405L5.09941 12.5949C4.97239 12.5344 4.82576 12.5302 4.69551 12.5834L0.4879 14.3007C0.43464 14.3224 0.376544 14.3312 0.318826 14.3263C0.261108 14.3214 0.205575 14.3029 0.157211 14.2725C0.108847 14.2421 0.0691641 14.2007 0.0417249 14.1521C0.0142857 14.1035 -5.14194e-05 14.0492 1.38565e-07 13.994V4.83564C1.38565e-07 4.63246 0.122954 4.44948 0.311073 4.37271L0.711074 4.20946ZM9.9701 7.32842L7.34479 9.82821C7.1517 10.0121 6.8483 10.0121 6.65521 9.82821L4.0299 7.32842C3.44259 6.76897 3.04265 6.05621 2.88065 5.28028C2.71865 4.50434 2.80187 3.70008 3.11977 2.96919C3.43768 2.2383 3.97601 1.61361 4.66668 1.1741C5.35735 0.734587 6.16935 0.5 7 0.5C7.83065 0.5 8.64265 0.734587 9.33332 1.1741C10.024 1.61361 10.5623 2.2383 10.8802 2.96919C11.1981 3.70008 11.2814 4.50434 11.1194 5.28028C10.9574 6.05621 10.5574 6.76897 9.9701 7.32842ZM6.6551 7.94252C6.84822 8.12652 7.15178 8.12652 7.3449 7.94252L8.9796 6.38506C9.37127 6.01213 9.63803 5.53697 9.74614 5.01964C9.85424 4.50232 9.79884 3.96608 9.58694 3.47875C9.37504 2.99142 9.01616 2.57488 8.55568 2.28182C8.09521 1.98875 7.55382 1.83233 7 1.83233C6.44618 1.83233 5.90479 1.98875 5.44432 2.28182C4.98384 2.57488 4.62496 2.99142 4.41306 3.47875C4.20116 3.96608 4.14576 4.50232 4.25386 5.01964C4.36197 5.53697 4.62873 6.01213 5.0204 6.38506L6.6551 7.94252Z" fill="#545454"/>
</svg>
