<svg width="20" height="20" viewBox="0 0 20 20" fill="none" xmlns="http://www.w3.org/2000/svg">
<path d="M4.51027 6.24998V9.95373C4.51027 10.1838 4.68834 10.3704 4.90799 10.3704H6.05995C6.27961 10.3704 6.45767 10.1838 6.45767 9.95373V6.24998H7.25313V9.95373C7.25313 10.6441 6.71892 11.2037 6.05995 11.2037H4.90799C4.24902 11.2037 3.71482 10.6441 3.71482 9.95373V6.24998H4.51027Z" fill="#007399"/>
<path fill-rule="evenodd" clip-rule="evenodd" d="M1.25 7.08336C1.25 6.39301 1.7842 5.83337 2.44318 5.83337H17.5568C18.2158 5.83337 18.75 6.39301 18.75 7.08336V16.25C18.75 16.9403 18.2158 17.5 17.5568 17.5H2.44318C1.7842 17.5 1.25 16.9403 1.25 16.25V7.08336ZM2.44318 6.6667C2.22352 6.6667 2.04545 6.85324 2.04545 7.08336V16.25C2.04545 16.4801 2.22352 16.6666 2.44318 16.6666H17.5568C17.7764 16.6666 17.9545 16.4801 17.9545 16.25V7.08336C17.9545 6.85324 17.7764 6.6667 17.5568 6.6667H2.44318Z" fill="#007399"/>
<path d="M4.86268 4.99999C4.86268 4.30964 5.39688 3.75 6.05586 3.75H13.9441C14.6031 3.75 15.1373 4.30964 15.1373 4.99999V5.83332H14.3418V4.99999C14.3418 4.76988 14.1638 4.58333 13.9441 4.58333H6.05586C5.8362 4.58333 5.65813 4.76988 5.65813 4.99999V5.83332H4.86268V4.99999Z" fill="#007399"/>
<path d="M13.5275 6.24998V9.95373C13.5275 10.1838 13.7055 10.3704 13.9252 10.3704H15.0771C15.2968 10.3704 15.4749 10.1838 15.4749 9.95373V6.24998H16.2703V9.95373C16.2703 10.6441 15.7361 11.2037 15.0771 11.2037H13.9252C13.2662 11.2037 12.732 10.6441 12.732 9.95373V6.24998H13.5275Z" fill="#007399"/>
</svg>
