<svg width="16" height="16" viewBox="0 0 16 16" fill="none" xmlns="http://www.w3.org/2000/svg">
<path d="M3.60822 4.99999V7.96299C3.60822 8.14709 3.75068 8.29633 3.9264 8.29633H4.84797C5.02369 8.29633 5.16615 8.14709 5.16615 7.96299V4.99999H5.80251V7.96299C5.80251 8.51528 5.37515 8.96299 4.84797 8.96299H3.9264C3.39922 8.96299 2.97186 8.51528 2.97186 7.96299V4.99999H3.60822Z" fill="#545454"/>
<path fill-rule="evenodd" clip-rule="evenodd" d="M1 5.6667C1 5.11441 1.42736 4.6667 1.95455 4.6667H14.0455C14.5726 4.6667 15 5.11441 15 5.6667V13C15 13.5523 14.5726 14 14.0455 14H1.95455C1.42736 14 1 13.5523 1 13V5.6667ZM1.95455 5.33336C1.77882 5.33336 1.63636 5.4826 1.63636 5.6667V13C1.63636 13.1841 1.77882 13.3333 1.95455 13.3333H14.0455C14.2212 13.3333 14.3636 13.1841 14.3636 13V5.6667C14.3636 5.4826 14.2212 5.33336 14.0455 5.33336H1.95455Z" fill="#545454"/>
<path d="M3.89015 4C3.89015 3.44771 4.31752 3 4.8447 3H11.1553C11.6825 3 12.1098 3.44771 12.1098 4V4.66666H11.4735V4C11.4735 3.8159 11.331 3.66666 11.1553 3.66666H4.8447C4.66897 3.66666 4.52652 3.8159 4.52652 4V4.66666H3.89015V4Z" fill="#545454"/>
<path d="M10.822 4.99999V7.96299C10.822 8.14709 10.9645 8.29633 11.1402 8.29633H12.0617C12.2375 8.29633 12.3799 8.14709 12.3799 7.96299V4.99999H13.0163V7.96299C13.0163 8.51528 12.5889 8.96299 12.0617 8.96299H11.1402C10.613 8.96299 10.1856 8.51528 10.1856 7.96299V4.99999H10.822Z" fill="#545454"/>
<path d="M3.60822 4.99999V7.96299C3.60822 8.14709 3.75068 8.29633 3.9264 8.29633H4.84797C5.02369 8.29633 5.16615 8.14709 5.16615 7.96299V4.99999H5.80251V7.96299C5.80251 8.51528 5.37515 8.96299 4.84797 8.96299H3.9264C3.39922 8.96299 2.97186 8.51528 2.97186 7.96299V4.99999H3.60822Z" stroke="#333333"/>
<path fill-rule="evenodd" clip-rule="evenodd" d="M1 5.6667C1 5.11441 1.42736 4.6667 1.95455 4.6667H14.0455C14.5726 4.6667 15 5.11441 15 5.6667V13C15 13.5523 14.5726 14 14.0455 14H1.95455C1.42736 14 1 13.5523 1 13V5.6667ZM1.95455 5.33336C1.77882 5.33336 1.63636 5.4826 1.63636 5.6667V13C1.63636 13.1841 1.77882 13.3333 1.95455 13.3333H14.0455C14.2212 13.3333 14.3636 13.1841 14.3636 13V5.6667C14.3636 5.4826 14.2212 5.33336 14.0455 5.33336H1.95455Z" stroke="#333333"/>
<path d="M3.89015 4C3.89015 3.44771 4.31752 3 4.8447 3H11.1553C11.6825 3 12.1098 3.44771 12.1098 4V4.66666H11.4735V4C11.4735 3.8159 11.331 3.66666 11.1553 3.66666H4.8447C4.66897 3.66666 4.52652 3.8159 4.52652 4V4.66666H3.89015V4Z" stroke="#333333"/>
<path d="M10.822 4.99999V7.96299C10.822 8.14709 10.9645 8.29633 11.1402 8.29633H12.0617C12.2375 8.29633 12.3799 8.14709 12.3799 7.96299V4.99999H13.0163V7.96299C13.0163 8.51528 12.5889 8.96299 12.0617 8.96299H11.1402C10.613 8.96299 10.1856 8.51528 10.1856 7.96299V4.99999H10.822Z" stroke="#333333"/>
</svg>
