<svg width="14" height="15" viewBox="0 0 14 15" fill="none" xmlns="http://www.w3.org/2000/svg">
<path d="M7 14.5C3.1339 14.5 0 11.3661 0 7.5C0 3.6339 3.1339 0.5 7 0.5C10.8661 0.5 14 3.6339 14 7.5C14 11.3661 10.8661 14.5 7 14.5ZM7 13.1C8.48521 13.1 9.90959 12.51 10.9598 11.4598C12.01 10.4096 12.6 8.98521 12.6 7.5C12.6 6.01479 12.01 4.59041 10.9598 3.5402C9.90959 2.49 8.48521 1.9 7 1.9C5.51479 1.9 4.09041 2.49 3.0402 3.5402C1.99 4.59041 1.4 6.01479 1.4 7.5C1.4 8.98521 1.99 10.4096 3.0402 11.4598C4.09041 12.51 5.51479 13.1 7 13.1ZM7.7 8.2H9.8V9.6H7.7V11H6.3V9.6H4.2V8.2H6.3V7.5H4.2V6.1H6.0102L4.5248 4.6153L5.516 3.6248L7 5.1102L8.4847 3.6248L9.4752 4.6153L7.9898 6.1H9.8V7.5H7.7V8.2Z" fill="#545454"/>
</svg>
