<svg width="14" height="11" viewBox="0 0 14 11" fill="none" xmlns="http://www.w3.org/2000/svg">
<path d="M6.5 8.5C6.5 8.56566 6.51293 8.63068 6.53806 8.69134C6.56319 8.752 6.60002 8.80712 6.64645 8.85355C6.69288 8.89998 6.748 8.93681 6.80866 8.96194C6.86932 8.98707 6.93434 9 7 9C7.06566 9 7.13068 8.98707 7.19134 8.96194C7.252 8.93681 7.30712 8.89998 7.35355 8.85355C7.39998 8.80712 7.43681 8.752 7.46194 8.69134C7.48707 8.63068 7.5 8.56566 7.5 8.5C7.5 8.36739 7.44732 8.24021 7.35355 8.14645C7.25978 8.05268 7.13261 8 7 8C6.86739 8 6.74021 8.05268 6.64645 8.14645C6.55268 8.24021 6.5 8.36739 6.5 8.5Z" fill="#957D95"/>
<path d="M7 7C6.72395 7 6.5 6.6453 6.5 6.20808V3.79192C6.5 3.3547 6.72395 3 7 3C7.27605 3 7.5 3.3547 7.5 3.79192V6.20808C7.5 6.6453 7.27605 7 7 7Z" fill="#957D95"/>
<path d="M6.48039 0.699999C6.71133 0.3 7.28867 0.299999 7.51962 0.7L12.7158 9.7C12.9467 10.1 12.658 10.6 12.1962 10.6H1.80385C1.34197 10.6 1.05329 10.1 1.28423 9.7L6.48039 0.699999Z" stroke="#957D95" stroke-width="0.8"/>
</svg>
