<svg width="32" height="32" viewBox="0 0 32 32" fill="none" xmlns="http://www.w3.org/2000/svg">
<circle cx="16" cy="16" r="15" stroke="#3E92CC" stroke-width="2"/>
<path d="M18.3413 14.8284C17.5073 16.2938 16.2938 17.5073 14.8284 18.3413L14.0427 17.2409C13.9163 17.0639 13.7295 16.9394 13.5175 16.891C13.3055 16.8425 13.0832 16.8734 12.8924 16.9778C11.6353 17.6648 10.2469 18.078 8.81867 18.1902C8.59575 18.2079 8.38769 18.3089 8.23596 18.4732C8.08422 18.6374 7.99997 18.8528 8 19.0764V23.0427C7.99995 23.2628 8.08155 23.475 8.22901 23.6384C8.37646 23.8018 8.57929 23.9047 8.79822 23.9271C9.26933 23.976 9.744 24 10.2222 24C17.8311 24 24 17.8311 24 10.2222C24 9.744 23.976 9.26933 23.9271 8.79822C23.9047 8.57929 23.8018 8.37646 23.6384 8.22901C23.475 8.08155 23.2628 7.99995 23.0427 8H19.0764C18.8528 7.99997 18.6374 8.08422 18.4732 8.23596C18.3089 8.38769 18.2079 8.59575 18.1902 8.81867C18.078 10.2469 17.6648 11.6353 16.9778 12.8924C16.8734 13.0832 16.8425 13.3055 16.891 13.5175C16.9394 13.7295 17.0639 13.9163 17.2409 14.0427L18.3413 14.8284ZM20.5831 14.2444L18.8942 13.0382C19.3735 12.0036 19.7019 10.9056 19.8693 9.77778H22.2133C22.2187 9.92533 22.2213 10.0738 22.2213 10.2222C22.2222 16.8498 16.8498 22.2222 10.2222 22.2222C10.0738 22.2222 9.92533 22.2196 9.77778 22.2133V19.8693C10.9056 19.7019 12.0036 19.3735 13.0382 18.8942L14.2444 20.5831C14.7301 20.3944 15.2018 20.1716 15.656 19.9164L15.7076 19.8871C17.451 18.8949 18.8949 17.451 19.8871 15.7076L19.9164 15.656C20.1716 15.2018 20.3944 14.7301 20.5831 14.2444Z" fill="#3E92CC"/>
</svg>
