<svg width="20" height="20" viewBox="0 0 20 20" fill="none" xmlns="http://www.w3.org/2000/svg">
<path d="M11.1932 7.49999H15.9659M11.1932 9.99998H15.9659M11.1932 12.5H15.9659M2.04545 16.25H17.9545C18.3938 16.25 18.75 15.8769 18.75 15.4166V4.58333C18.75 4.1231 18.3938 3.75 17.9545 3.75H2.04545C1.60614 3.75 1.25 4.1231 1.25 4.58333V15.4166C1.25 15.8769 1.60614 16.25 2.04545 16.25ZM4.43181 11.25H7.61362C8.05294 11.25 8.40907 10.8769 8.40907 10.4167V9.58332C8.40907 9.12308 8.05294 8.74999 7.61362 8.74999H4.43181C3.99249 8.74999 3.63636 9.12308 3.63636 9.58332V10.4167C3.63636 10.8769 3.99249 11.25 4.43181 11.25Z" stroke="#007399" stroke-width="0.874998" stroke-linecap="round"/>
</svg>
