<svg width="17" height="16" viewBox="0 0 17 16" fill="none" xmlns="http://www.w3.org/2000/svg">
<path d="M9.91939 6H13.7376M9.91939 8H13.7376M9.91939 10H13.7376M2.60121 13H15.3285C15.6799 13 15.9648 12.7015 15.9648 12.3333V3.66667C15.9648 3.29848 15.6799 3 15.3285 3H2.60121C2.24975 3 1.96484 3.29848 1.96484 3.66667V12.3333C1.96484 12.7015 2.24975 13 2.60121 13ZM4.5103 9H7.05575C7.40721 9 7.69212 8.70152 7.69212 8.33333V7.66667C7.69212 7.29848 7.40721 7 7.05575 7H4.5103C4.15884 7 3.87393 7.29848 3.87393 7.66667V8.33333C3.87393 8.70152 4.15884 9 4.5103 9Z" stroke="#545454" stroke-width="0.7" stroke-linecap="round"/>
</svg>
