<svg width="24" height="24" viewBox="0 0 24 24" fill="none" xmlns="http://www.w3.org/2000/svg">
<path d="M9.7139 5.29355C10.6829 2.86298 11.1674 1.64771 12.0006 1.64771C12.8337 1.64771 13.3182 2.86299 14.2872 5.29356L14.3323 5.40674C14.8797 6.77989 15.1535 7.46646 15.7114 7.88377C16.2692 8.30108 17.0015 8.36707 18.4661 8.49904L18.7308 8.5229C21.1278 8.7389 22.3264 8.84689 22.5827 9.61409C22.8392 10.3813 21.9492 11.196 20.169 12.8255L19.575 13.3694C18.6739 14.1942 18.2233 14.6067 18.0132 15.1473C17.9741 15.2482 17.9416 15.3514 17.9158 15.4565C17.7777 16.0201 17.9096 16.6184 18.1736 17.8151L18.2557 18.1875C18.7407 20.3867 18.9831 21.4863 18.5598 21.9607C18.4015 22.1379 18.1959 22.2654 17.9675 22.3282C17.3563 22.496 16.4884 21.7845 14.7529 20.3615C13.6131 19.4271 13.0433 18.9598 12.389 18.8547C12.1317 18.8134 11.8694 18.8134 11.6121 18.8547C10.9578 18.9598 10.388 19.4271 9.24834 20.3615C7.51269 21.7845 6.64487 22.496 6.03362 22.3282C5.80521 22.2654 5.5996 22.1379 5.44139 21.9607C5.01803 21.4863 5.2605 20.3867 5.74546 18.1875L5.82759 17.8151C6.09147 16.6184 6.22341 16.0201 6.08537 15.4565C6.05963 15.3514 6.02705 15.2482 5.98788 15.1473C5.77788 14.6067 5.32733 14.1942 4.4262 13.3694L3.8321 12.8255C2.05199 11.196 1.16194 10.3813 1.41839 9.61409C1.67484 8.84689 2.87334 8.7389 5.27032 8.5229L5.5351 8.49904C6.99968 8.36707 7.73197 8.30108 8.28983 7.88377C8.84768 7.46646 9.1214 6.77989 9.66882 5.40674L9.7139 5.29355Z" stroke="#957D95" stroke-width="1.4"/>
</svg>
