<svg width="24" height="22" viewBox="0 0 24 22" fill="none" xmlns="http://www.w3.org/2000/svg">
<path d="M9.77161 4.50696C10.7155 2.15376 11.1875 0.977173 11.9992 0.977173C12.8107 0.977173 13.2827 2.15377 14.2266 4.50697L14.2705 4.61654C14.8038 5.94599 15.0705 6.6107 15.6139 7.01473C16.1573 7.41876 16.8707 7.48265 18.2974 7.61041L18.5553 7.63351C20.8902 7.84264 22.0578 7.94719 22.3075 8.68997C22.5574 9.43277 21.6904 10.2215 19.9563 11.7992L19.3776 12.3257C18.4998 13.1243 18.0609 13.5237 17.8563 14.047C17.8181 14.1447 17.7864 14.2446 17.7613 14.3464C17.6268 14.892 17.7553 15.4713 18.0125 16.6299L18.0924 16.9905C18.5649 19.1196 18.801 20.1843 18.3887 20.6435C18.2345 20.8151 18.0342 20.9386 17.8117 20.9993C17.2163 21.1618 16.3709 20.473 14.6802 19.0953C13.57 18.1906 13.0149 17.7382 12.3775 17.6364C12.1269 17.5965 11.8714 17.5965 11.6207 17.6364C10.9834 17.7382 10.4283 18.1906 9.3181 19.0953C7.62734 20.473 6.78198 21.1618 6.18654 20.9993C5.96404 20.9386 5.76374 20.8151 5.60963 20.6435C5.19722 20.1843 5.43342 19.1196 5.90584 16.9905L5.98584 16.6299C6.24289 15.4713 6.37142 14.892 6.23695 14.3464C6.21187 14.2446 6.18014 14.1447 6.14198 14.047C5.93742 13.5237 5.49852 13.1243 4.62071 12.3257L4.04197 11.7992C2.30791 10.2215 1.44089 9.43277 1.6907 8.68997C1.94052 7.94719 3.10801 7.84264 5.44298 7.63351L5.70091 7.61041C7.1276 7.48265 7.84096 7.41876 8.38438 7.01473C8.9278 6.6107 9.19444 5.94599 9.72769 4.61654L9.77161 4.50696Z" fill="#957D95" stroke="#957D95" stroke-width="1.4"/>
</svg>
