<svg width="16" height="16" viewBox="0 0 16 16" fill="none" xmlns="http://www.w3.org/2000/svg">
<path fill-rule="evenodd" clip-rule="evenodd" d="M2.10078 2.96997C1.38281 2.96997 0.800781 3.552 0.800781 4.26997V11.7411C0.800781 12.4591 1.38281 13.0412 2.10078 13.0412H13.8504C14.5683 13.0412 15.1504 12.4591 15.1504 11.7412V4.26997C15.1504 3.552 14.5683 2.96997 13.8504 2.96997H2.10078ZM1.84193 3.61939C1.922 3.5875 2.00934 3.56997 2.10078 3.56997H13.8504C13.941 3.56997 14.0276 3.5872 14.1071 3.61856L8.38486 7.7677C8.13975 7.94543 7.80815 7.94543 7.56304 7.7677L1.84193 3.61939ZM1.43183 4.06316C1.41165 4.12852 1.40078 4.19798 1.40078 4.26997V11.7411C1.40078 12.1277 1.71418 12.4411 2.10078 12.4411H13.8504C14.237 12.4411 14.5504 12.1278 14.5504 11.7412V4.26997C14.5504 4.19727 14.5393 4.12717 14.5187 4.06124L8.73707 8.25344C8.28186 8.58351 7.66604 8.58351 7.21083 8.25344L1.43183 4.06316Z" fill="#545454"/>
</svg>
