<svg width="20" height="20" viewBox="0 0 20 20" fill="none" xmlns="http://www.w3.org/2000/svg">
<path fill-rule="evenodd" clip-rule="evenodd" d="M2.62487 3.71252C1.72741 3.71252 0.999878 4.44006 0.999878 5.33752V14.6765C0.999878 15.5739 1.72741 16.3015 2.62487 16.3015H17.3118C18.2093 16.3015 18.9368 15.5739 18.9368 14.6765V5.33752C18.9368 4.44006 18.2093 3.71252 17.3118 3.71252H2.62487ZM2.30133 4.52429C2.40141 4.48443 2.51058 4.46252 2.62487 4.46252H17.3118C17.4251 4.46252 17.5334 4.48406 17.6328 4.52328L10.48 9.70969C10.1736 9.93185 9.75912 9.93185 9.45273 9.70969L2.30133 4.52429ZM1.7887 5.07899C1.76346 5.1607 1.74988 5.24752 1.74988 5.33752V14.6765C1.74988 15.1597 2.14163 15.5515 2.62487 15.5515H17.3118C17.795 15.5515 18.1868 15.1597 18.1868 14.6765V5.33752C18.1868 5.24667 18.173 5.15905 18.1473 5.07666L10.9203 10.3169C10.3513 10.7295 9.58148 10.7295 9.01247 10.3169L1.7887 5.07899Z" fill="#007399"/>
</svg>
