<svg width="96" height="116" viewBox="0 0 96 116" fill="none" xmlns="http://www.w3.org/2000/svg">
<rect x="0.5" y="0.5" width="95" height="115" rx="3.5" fill="#F7F7F7" stroke="#3E92CC"/>
<rect x="16.75" y="30.5501" width="62.5" height="41.7" rx="3.25" stroke="#3E92CC" stroke-width="1.5"/>
<path d="M31.4072 31V27C31.4072 25.8954 32.3027 25 33.4072 25H62.5924C63.697 25 64.5924 25.8954 64.5924 27V31" stroke="#3E92CC" stroke-width="1.5"/>
<path d="M26.667 31V45.8C26.667 46.9046 27.5624 47.8 28.667 47.8H34.1485C35.253 47.8 36.1485 46.9046 36.1485 45.8V31" stroke="#3E92CC" stroke-width="1.5"/>
<path d="M59.8516 31V45.8C59.8516 46.9046 60.747 47.8 61.8516 47.8H67.333C68.4376 47.8 69.333 46.9046 69.333 45.8V31" stroke="#3E92CC" stroke-width="1.5"/>
<path d="M35.742 90.5501H36.882L37.152 88.8601H37.812L37.542 90.5501H39.062L39.332 88.8601H39.992L39.722 90.5501H40.732L40.642 91.1501H39.632L39.222 93.7201H40.352L40.262 94.3201H39.132L38.862 96.0001H38.192L38.462 94.3201H36.952L36.682 96.0001H36.012L36.282 94.3201H35.272L35.362 93.7201H36.372L36.782 91.1501H35.652L35.742 90.5501ZM37.042 93.7201H38.552L38.962 91.1501H37.452L37.042 93.7201ZM41.698 88.7101H43.388V87.7901H44.118V88.7101H47.878V87.7901H48.608V88.7101H50.298V89.3901H48.608V93.9701H50.488V94.6401H41.518V93.9701H43.388V89.3901H41.698V88.7101ZM44.118 93.9701H47.878V92.8301H44.118V93.9701ZM44.118 92.2101H47.878V91.1001H44.118V92.2101ZM44.118 90.4801H47.878V89.3901H44.118V90.4801ZM45.148 95.3401C44.3347 95.9535 43.3247 96.4968 42.118 96.9701L41.668 96.3901C42.8547 95.9435 43.8447 95.4401 44.638 94.8801L45.148 95.3401ZM47.278 94.9101C48.4114 95.3168 49.4314 95.8001 50.338 96.3601L49.938 96.9701C48.9514 96.3235 47.9447 95.8168 46.918 95.4501L47.278 94.9101ZM54.238 88.0501C54.0047 88.7768 53.7014 89.4968 53.328 90.2101V97.0201H52.618V91.3701C52.2914 91.8368 51.9314 92.2868 51.538 92.7201L51.308 91.9901C52.348 90.7501 53.108 89.3368 53.588 87.7501L54.238 88.0501ZM55.858 96.8101C55.1047 96.8101 54.728 96.4268 54.728 95.6601V91.6901L53.838 91.9701V91.2301L54.728 90.9501V88.7501H55.438V90.7201L56.918 90.2501V87.8201H57.628V90.0201L59.808 89.3301C59.808 91.4235 59.7614 92.7035 59.668 93.1701C59.568 93.6168 59.1714 93.8401 58.478 93.8401H58.318L58.108 93.1401C58.3614 93.1535 58.5347 93.1601 58.628 93.1601C58.8414 93.1601 58.9714 93.0401 59.018 92.8001C59.0514 92.6001 59.0747 91.7735 59.088 90.3201L57.628 90.7801V94.9101H56.918V91.0001L55.438 91.4701V95.5501C55.438 95.9301 55.6347 96.1201 56.028 96.1201H59.038C59.3047 96.1201 59.498 96.0501 59.618 95.9101C59.7247 95.7635 59.798 95.2468 59.838 94.3601L60.518 94.5901C60.458 95.6235 60.3347 96.2535 60.148 96.4801C59.968 96.7001 59.638 96.8101 59.158 96.8101H55.858Z" fill="#3E92CC"/>
</svg>
