<svg width="96" height="116" viewBox="0 0 96 116" fill="none" xmlns="http://www.w3.org/2000/svg">
<rect x="0.5" y="0.5" width="95" height="115" rx="3.5" fill="#F7F7F7" stroke="#3E92CC"/>
<rect x="16.75" y="25.75" width="62.5" height="46.5" stroke="#3E92CC" stroke-width="1.5"/>
<path d="M40.6668 50.8252C44.881 50.8252 48.3058 54.2501 48.3058 58.4643V61.2124C48.3058 62.0756 47.6448 62.799 46.697 62.9213H26.3475C25.3439 62.9213 24.6387 62.1291 24.6387 61.2124V58.4643C24.6387 54.2501 28.0635 50.8252 32.2777 50.8252H40.6668Z" stroke="#3E92CC" stroke-width="1.5"/>
<path d="M36.7654 48.7466H35.6082C32.5511 48.7466 29.9941 46.1896 29.9941 43.1325V41.9754C29.9941 38.9183 32.5511 36.3613 35.6082 36.3613H36.7654C39.8225 36.3613 42.3795 38.9183 42.3795 41.9754V43.1325C42.3795 46.1896 39.8225 48.7466 36.7654 48.7466Z" stroke="#3E92CC" stroke-width="1.5"/>
<line x1="53.333" y1="40.25" x2="73.333" y2="40.25" stroke="#3E92CC" stroke-width="1.5"/>
<line x1="53.333" y1="50.9165" x2="73.333" y2="50.9165" stroke="#3E92CC" stroke-width="1.5"/>
<line x1="53.333" y1="61.5835" x2="73.333" y2="61.5835" stroke="#3E92CC" stroke-width="1.5"/>
<path d="M30.742 90.55H31.882L32.152 88.86H32.812L32.542 90.55H34.062L34.332 88.86H34.992L34.722 90.55H35.732L35.642 91.15H34.632L34.222 93.72H35.352L35.262 94.32H34.132L33.862 96H33.192L33.462 94.32H31.952L31.682 96H31.012L31.282 94.32H30.272L30.362 93.72H31.372L31.782 91.15H30.652L30.742 90.55ZM32.042 93.72H33.552L33.962 91.15H32.452L32.042 93.72ZM36.608 89.77H37.968V87.85H38.698V89.77H39.738V90.46H38.698V91.28C39.038 91.6867 39.378 92.1267 39.718 92.6C40.318 91.94 40.8347 91.1467 41.268 90.22L41.868 90.52C41.4147 91.4933 40.8747 92.3367 40.248 93.05L39.818 92.74L40.048 93.07L39.658 93.64C39.2914 92.94 38.9714 92.37 38.698 91.93V96.95H37.968V91.88C37.6347 92.8533 37.2014 93.7367 36.668 94.53L36.358 93.75C37.1114 92.7767 37.6447 91.68 37.958 90.46H36.608V89.77ZM39.998 89.12H42.448C42.248 88.6067 42.0514 88.1833 41.858 87.85L42.588 87.73C42.8014 88.1567 42.9947 88.62 43.168 89.12H45.378V89.82H39.998V89.12ZM43.848 90.18C44.5814 91.08 45.1514 91.8767 45.558 92.57L44.958 92.98C44.5714 92.28 44.0147 91.4633 43.288 90.53L43.848 90.18ZM44.218 92.19C44.018 93.29 43.6614 94.1967 43.148 94.91C43.7947 95.4833 44.6147 95.96 45.608 96.34L45.248 96.98C44.188 96.5533 43.3414 96.0467 42.708 95.46C42.0014 96.2067 41.1047 96.7333 40.018 97.04L39.608 96.39C40.6814 96.11 41.5414 95.6267 42.188 94.94C41.548 94.1867 41.138 93.3133 40.958 92.32L41.588 92.13C41.7147 92.97 42.0614 93.7233 42.628 94.39C43.0747 93.73 43.378 92.9533 43.538 92.06L44.218 92.19ZM55.088 88.28V97H54.368V96.6H47.628V97H46.908V88.28H55.088ZM47.628 95.96H54.368V88.94H47.628V95.96ZM48.898 89.86H53.108V90.5H48.898V89.86ZM48.328 91.57H53.668V92.21H52.068V94.26C52.068 94.5 52.1747 94.62 52.388 94.62H52.768C52.9014 94.62 53.008 94.59 53.088 94.53C53.2014 94.4633 53.278 94.1167 53.318 93.49L53.918 93.69C53.838 94.4433 53.7314 94.8867 53.598 95.02C53.4714 95.1333 53.2414 95.1967 52.908 95.21H52.178C51.9314 95.21 51.7414 95.1367 51.608 94.99C51.4747 94.8367 51.408 94.6433 51.408 94.41V92.21H50.458C50.3714 93.03 50.178 93.6667 49.878 94.12C49.5447 94.6267 49.0214 95.0333 48.308 95.34L47.968 94.76C48.5814 94.52 49.0347 94.18 49.328 93.74C49.568 93.36 49.728 92.85 49.808 92.21H48.328V91.57ZM60.138 87.86H60.878V89.1H64.128V89.8H60.878V91.3H65.438V92H60.878V93.01C62.0447 93.5367 63.238 94.1567 64.458 94.87L64.048 95.48C62.7614 94.6933 61.7047 94.1033 60.878 93.71V96.99H60.138V92H56.548V91.3H60.138V87.86Z" fill="#3E92CC"/>
</svg>
