<svg width="12" height="13" viewBox="0 0 12 13" fill="none" xmlns="http://www.w3.org/2000/svg">
<path fill-rule="evenodd" clip-rule="evenodd" d="M12 6.5C12 9.81371 9.31371 12.5 6 12.5C2.68629 12.5 0 9.81371 0 6.5C0 3.18629 2.68629 0.5 6 0.5C9.31371 0.5 12 3.18629 12 6.5ZM5.92438 3.5C5.6389 3.5 5.41136 3.73863 5.42494 4.02378L5.6 7.7H6.4L6.57506 4.02378C6.58864 3.73863 6.3611 3.5 6.07562 3.5H5.92438ZM6 9.45C6.33137 9.45 6.6 9.18137 6.6 8.85C6.6 8.51863 6.33137 8.25 6 8.25C5.66863 8.25 5.4 8.51863 5.4 8.85C5.4 9.18137 5.66863 9.45 6 9.45Z" fill="#3E92CC"/>
</svg>
